<svg xmlns="http://www.w3.org/2000/svg" viewBox="0 0 50 54" fill="none">
  <g clip-path="url(#clip0_23_702)">
    <path fill-rule="evenodd" clip-rule="evenodd" d="M33.3606 13.6365C34.0782 13.6313 34.5477 13.7053 35.135 14.1824C36.4329 15.2369 36.167 17.0181 36.055 18.4831C36.0298 18.8106 35.9833 19.2954 36.0208 19.6121L36.0257 19.6511L36.2835 19.9001C37.0263 19.9571 38.0255 19.9193 38.7669 19.8591C39.3356 19.813 39.8341 19.8232 40.4016 19.8201C41.537 19.8138 42.7331 19.7531 43.6556 20.5515C44.1757 21.0006 44.4965 21.6383 44.5452 22.324C44.6254 23.4966 43.6999 24.4642 42.6009 24.6941C41.739 24.8742 40.9879 24.8159 40.1223 24.7468C39.7833 24.7198 39.4113 24.7579 39.0696 24.7302C38.1445 24.6704 37.2271 24.6421 36.3011 24.5701C35.9606 24.5436 35.5814 24.4992 35.2493 24.4949C35.0264 24.4956 34.8056 24.665 34.7083 24.8591C34.3888 25.4961 34.1459 26.182 33.8255 26.8201C32.7349 28.9907 31.2817 31.053 29.3821 32.5925C27.9399 33.7618 26.1967 34.6786 24.5179 35.4587C23.9949 35.6992 23.4684 35.9866 22.9368 36.2175C22.0967 36.5874 21.2066 36.8854 20.3675 37.2517C17.0538 38.6978 13.0723 40.7007 13.4759 44.9851C13.6942 47.3017 14.9766 49.2707 16.9847 50.4412C17.4138 50.6916 17.9084 50.8468 18.3753 51.0095C19.0747 51.2403 19.8528 51.0256 20.4495 51.5564C20.683 51.763 20.8207 52.0572 20.8313 52.3689C20.8548 53.0216 20.2686 53.6069 19.6321 53.6462C18.8275 53.6955 18.0073 53.5592 17.2093 53.5076C15.8977 53.4223 14.5829 53.349 13.2727 53.2439C12.7135 53.188 12.0954 53.2679 11.5423 53.2214C10.0122 53.092 8.49283 53.1323 6.95633 53.1326C6.59013 53.1245 5.9634 53.119 5.62039 53.0173C5.3481 52.9366 5.24896 52.6685 5.14578 52.4343C5.21789 52.1787 5.25934 52.0451 5.4036 51.823C5.82217 51.6114 6.31543 51.5661 6.69461 51.279C8.45005 49.9492 8.79748 45.1243 8.87332 43.0154C8.90491 42.1366 8.88096 41.2486 8.88114 40.3689C8.88135 39.4042 8.90983 38.4281 8.87137 37.4646C8.85663 37.0941 8.81837 36.7248 8.80789 36.3542C8.79688 35.9657 8.80768 35.5758 8.78739 35.1873C8.76043 34.6721 8.64307 34.1043 8.72684 33.5945C8.7732 33.3125 8.98191 33.1317 9.20145 32.9744C9.4416 32.9537 9.5635 32.9555 9.80594 32.9675C10.7503 33.6427 11.6256 34.2077 12.721 34.6208C13.5661 34.9394 14.3131 35.1068 15.2083 35.2068C15.3594 35.2236 15.6744 35.2842 15.805 35.2253C15.8714 34.9878 15.7349 34.9458 15.5501 34.8611C12.5396 33.4768 9.87839 31.1517 8.52567 28.0837C8.30853 27.591 8.14599 27.0702 7.91532 26.5837C6.88424 24.4186 4.69204 23.4025 2.40262 23.1638C1.91645 23.1132 0.405658 23.3216 0.487581 22.3445C0.515138 22.0169 0.931814 21.7911 1.26102 21.7849C1.75092 21.7759 2.2666 21.7775 2.76981 21.7781L5.63504 21.781H12.7054C14.3901 21.7807 16.0712 21.8263 17.7493 21.6999C18.2148 21.6649 18.724 21.7144 19.1956 21.6833C20.3729 21.6057 21.5553 21.5579 22.7307 21.4519C24.3107 21.2966 25.8858 21.0942 27.4534 20.8445C28.3981 20.7025 29.3873 20.4916 30.3548 20.491C30.4481 20.4909 30.5315 20.5584 30.6682 20.5847C30.7827 20.5461 30.8983 20.3936 30.9866 20.2966C31.1893 19.3592 31.045 17.9446 31.0852 16.9558C31.084 16.5109 31.0744 16.0914 31.1614 15.6511C31.3782 14.5535 32.1977 13.6893 33.3606 13.6365ZM26.9798 23.6824C25.4275 23.5658 23.6868 23.5033 22.1282 23.5769C20.0978 23.7546 17.302 23.9972 15.5413 25.2595C15.073 25.5954 14.8544 26.2201 14.9114 26.7986C15.0273 27.9736 15.9179 28.8564 16.7981 29.5593C18.8207 31.1574 20.8131 31.709 23.3518 31.5974C27.1411 31.1971 29.4476 28.7314 30.4124 25.154C30.5055 24.8082 30.6003 24.4621 30.5628 24.1003C30.5592 24.0655 30.5548 24.0304 30.5491 23.9958C29.3193 23.9426 28.1987 23.774 26.9798 23.6824Z" fill="currentColor"/>
    <path d="M22.3427 0.00324632C23.228 -0.0266313 24.8151 0.155637 25.6879 0.307007C27.7437 0.663557 32.0663 2.31217 33.2383 4.09002C33.752 4.86324 33.9295 5.81208 33.7301 6.7188C33.6352 7.1591 33.2338 7.98636 32.9179 8.31892C30.4213 10.9473 27.623 13.3859 24.63 15.4393C24.0868 15.812 23.3436 16.1036 22.7035 15.9597C22.2601 15.8619 21.875 15.5894 21.6351 15.2039C20.8913 14.0061 22.0854 12.4882 22.6964 11.4974C23.4997 10.1947 24.0458 9.30365 24.3883 7.80229C24.0649 6.77865 22.9292 6.80063 22.0233 6.76565C20.4818 6.7061 19.2253 7.23261 17.929 8.00204C17.0749 8.50062 16.2657 9.30272 15.6434 10.0605C13.908 12.1737 12.9724 14.4068 12.5579 17.1014C12.4525 17.7868 12.544 19.3735 12.1457 19.8677C11.9372 20.1266 11.5936 20.2101 11.2777 20.2396C10.6767 20.2958 10.0401 20.2577 9.43568 20.2591C8.85347 20.2604 8.08487 20.3274 7.52124 20.219C7.29438 20.1753 7.07118 20.0854 6.89615 19.9316C6.68067 19.7422 6.6013 19.4447 6.5892 19.1671C6.37507 14.2593 7.47137 8.74321 10.8687 5.00641C13.9904 1.5728 17.7823 0.207315 22.3427 0.00324632Z" fill="currentColor"/>
    <path d="M32.5975 32.4404C32.6464 32.4356 32.6953 32.4326 32.7446 32.4308C33.0671 32.4197 33.3986 32.5548 33.6322 32.7761C33.8962 33.0293 34.0652 33.3653 34.1109 33.728C34.1529 34.0463 34.1028 34.385 34.0841 34.7054C33.9977 36.2134 33.8745 37.7136 34.0154 39.2243C34.067 39.7783 34.0472 40.3353 34.0631 40.8908C34.2622 43.9453 34.4096 45.0835 35.2507 48.0412C35.4495 48.7393 35.7456 49.463 36.1819 50.0353C36.681 50.6893 37.613 50.7182 38.1818 51.2791C38.8475 51.9304 38.8937 52.7354 38.2349 53.4089C37.9415 53.7113 37.5203 53.8744 37.1044 53.9218C36.1062 54.0359 35.0357 53.9915 34.0292 53.9915L28.38 53.99C27.2993 53.9921 26.3078 53.9981 25.2291 53.896C24.4208 53.8197 23.5804 54.0624 22.8054 53.6342C22.4503 53.4408 22.1906 53.1096 22.0875 52.7186C21.9964 52.3859 22.0618 51.9835 22.2331 51.6863C22.6751 50.919 23.6156 50.923 24.3678 50.7164C25.1337 50.5065 25.8003 50.0038 26.2841 49.3837C28.2971 46.804 29.2145 42.4967 29.5256 39.2201C29.5601 38.8583 29.5559 38.4922 29.5736 38.1292C29.5898 37.7932 29.6214 37.4581 29.6361 37.1217C29.6511 36.7818 29.6307 36.4083 29.719 36.0786C29.7523 35.9534 29.8229 35.8279 29.8862 35.7155C30.1355 35.2747 30.4904 34.8883 30.7769 34.47C31.1681 33.8992 31.4654 33.1509 31.9843 32.6909C32.1413 32.5518 32.3996 32.4957 32.5975 32.4404Z" fill="currentColor"/>
  </g>
</svg>
